<svg width="504" height="409" fill="none" xmlns="http://www.w3.org/2000/svg"><g clip-path="url(#a)"><path d="M209.954 168.931a138.373 138.373 0 0 1-11.565 8.335c-8.4 4.91-17.187 9.078-25.845 13.181-28.267 13.181-56.438 26.523-84.156 40.706-11.791 6.041-23.648 12.406-36.44 15.765a34.544 34.544 0 0 1-8.368 1.357 7.84 7.84 0 0 1-6.784-2.746c-4.135-5.912-1.938-14.473-.904-21.613a211.298 211.298 0 0 1 8.948-35.892c7.883-23.778 17.154-55.794 41.158-62.836a61.348 61.348 0 0 1 17.574-2.423c26.555 0 53.983 14.861 79.536 23.971 9.53 3.231 20.45 4.588 28.235 11.049 2.779 2.391-1.389 11.146-1.389 11.146Z" fill="#F0F0F0"/><path d="M280.09 339.961a70.452 70.452 0 0 0 15.442-14.635c4.232-6.009 7.139-13.73 1.712-14.344h-.808c-4.296 0-12.243 3.231-16.992 3.231-1.713 0-2.972-.388-3.554-1.454-2.229-4.264 7.01-19.384 6.461-25.845-.226-3.037-2.617-4.168-5.492-4.168a14.803 14.803 0 0 0-8.884 3.231c-3.683 3.231-.84 7.883-1.389 13.439-.549 5.557-4.232 11.728-10.661 11.728h-.678c-6.849-.453-16.638-7.948-20.74-8.335h-.323c-3.683 0-2.133 6.461-.614 12.922a103.155 103.155 0 0 0-13.213-1.421 10.552 10.552 0 0 0-4.2.614c-2.972 1.324-1.712 5.072-.452 8.819-3.005 0-6.009-.323-8.658-.323-4.103 0-7.334.388-8.367 1.842-1.68 2.39 2.584 7.592 6.881 12.922l74.529 1.777Z" fill="#D2D7FB"/><path d="M271.658 302.324c.84.194 1.389.969 1.68 2.326l3.23 15.927a12.323 12.323 0 0 0 3.037 5.008c.416.414.966.667 1.551.71a3.89 3.89 0 0 0 1.518-.323 32.606 32.606 0 0 0 5.201-3.23 9.697 9.697 0 0 1 2.649-1.099h.873a2.587 2.587 0 0 1 2.358 1.325 9.942 9.942 0 0 1 1.002 3.231 77.542 77.542 0 0 1-13.246 12.534l-1.389 1.067-74.303-2.068a53.054 53.054 0 0 1-6.461-8.561c-1.228-2.1-1.26-3.651 0-4.685h.355l3.812 1.713c1.05.408 2.13.732 3.231.969-.42 0 3.037.517 10.402 1.454l5.331 1.324a8.36 8.36 0 0 0 1.163 0c.331.057.67.057 1.001 0 1.68-.517 2.326-1.486 1.906-2.907a7.538 7.538 0 0 0-1.001-2.068 33.352 33.352 0 0 1-3.489-4.975 1.424 1.424 0 0 1 0-1.389l.614-.453a1.72 1.72 0 0 1 .807 0c.379.021.751.109 1.099.259l8.69 4.458c1.199.556 2.472.937 3.78 1.131h.807a3.226 3.226 0 0 0 1.389-.937l3.586-5.008a4.447 4.447 0 0 1 1.454-1.066l.969-.194h.549a8.924 8.924 0 0 1 3.231 1.066 59.32 59.32 0 0 1 5.395 3.49 17.17 17.17 0 0 0 2.132 1.13 7.423 7.423 0 0 0 2.294.517 4.086 4.086 0 0 0 1.583-.194c1.518-.29 3.069-1.744 4.587-4.329a63.286 63.286 0 0 0 4.135-14.021 2.848 2.848 0 0 1 2.488-2.132Z" fill="#000" fill-opacity=".102"/><path d="m114.943 194.873 9.466 8.658h.388c3.23.84 8.173 2.423 14.602 4.749a78.536 78.536 0 0 0-9.692-7.463 40.323 40.323 0 0 0-4.91-2.714 38.058 38.058 0 0 0-3.683-1.518 50.446 50.446 0 0 0-4.103-1.292l-2.1-.517.032.097Z" fill="#fff"/><path d="M115.299 258.129a32.324 32.324 0 0 0-3.231 1.518c-5.007 2.778-6.945 5.008-5.815 6.623.356 1.034 2.035 2.197 5.072 3.489l6.461 2.229 8.723 3.231.711.258a30.02 30.02 0 0 1 6.751 3.457 13.143 13.143 0 0 1 3.748 4.2l3.23 8.27c1.196 1.713 2.133 2.585 2.779 2.617.457.286.979.453 1.518.485l.614-.388c.904-.549 1.809-1.098 2.681-1.551l2.229-1.066.388-.161h.226a38.097 38.097 0 0 1 3.618-1.196 56.432 56.432 0 0 1 8.691-1.453c-4.362 2.261-7.592 4.07-9.692 5.427l-1.454.969c4.892-.088 9.783.182 14.635.808a30.99 30.99 0 0 1 9.691 3.877 40.538 40.538 0 0 1 9.24 9.692 49.856 49.856 0 0 1 4.264 6.913c5.201 9.692 7.721 14.926 8.044 15.217a46.223 46.223 0 0 0 3.974 5.459 35.841 35.841 0 0 0 15.442 9.692c7.01 2.068 12.179 2.456 15.507 1.034a6.979 6.979 0 0 0 4.393-5.944 29.35 29.35 0 0 0-2.261-12.535 232.98 232.98 0 0 0-11.404-26.104l-2.294-4.716a335.473 335.473 0 0 0-31.886-31.499 74.588 74.588 0 0 0-24.358-13.44 62.414 62.414 0 0 0-24.875-1.583 36.32 36.32 0 0 1 1.163 2.1 81.464 81.464 0 0 1 4.587 10.984 106.66 106.66 0 0 0-14.57-11.598l-1.26.291a105.775 105.775 0 0 0-15.248 4.781l-.032-.387Z" fill="#D2D7FB"/><path d="M119.369 175.941c-1.744 0-3.36.065-4.846.194-7.882.905-11.565 2.681-11.016 5.363 0 1.486 1.422 3.877 4.62 7.14l6.816 6.235 9.466 8.658.775.711a40.785 40.785 0 0 1 6.752 8.076 18.254 18.254 0 0 1 2.488 7.398l-.388 12.245c.614 2.843 1.357 4.426 2.132 4.846 0 .258.614.743 1.68 1.421l1.002-.162c1.453-.226 2.875-.42 4.232-.516 1.356-.097 2.293 0 3.424 0h.937c.84 0 2.584 0 5.233.452a87.35 87.35 0 0 1 11.889 2.811c-6.817.549-11.889 1.13-15.248 1.712l-2.391.452c11.016 4.781 17.09 7.786 18.188 8.949a32.759 32.759 0 0 1 10.241 10.144 49.386 49.386 0 0 1 6.461 17.187 101.54 101.54 0 0 1 1.712 11.146c1.099 15.281 1.777 23.164 2.035 23.713a50.154 50.154 0 0 0 2.1 9.11 48.469 48.469 0 0 0 14.409 20.709c7.818 6.461 14.279 9.692 19.383 9.692a9.919 9.919 0 0 0 8.787-5.202 43.93 43.93 0 0 0 3.909-17.187 327.341 327.341 0 0 0-.42-39.446l-.388-7.236c-10.94-30.498-18.812-49.623-23.615-57.377a93.68 93.68 0 0 0-23.777-30.303 84.917 84.917 0 0 0-30.852-15.475c0 .937.226 2.035.388 3.231.353 5.497.353 11.011 0 16.508a147.988 147.988 0 0 0-12.341-22.614l-1.744-.323a143.653 143.653 0 0 0-22.033-2.262Z" fill="#D2D7FB"/><path d="m114.943 194.873 9.466 8.658h.388c3.23.84 8.173 2.423 14.602 4.749a78.536 78.536 0 0 0-9.692-7.463 40.323 40.323 0 0 0-4.91-2.714 38.058 38.058 0 0 0-3.683-1.518 50.446 50.446 0 0 0-4.103-1.292l-2.1-.517.032.097ZM190.797 351.785c9.046-7.01 18.123-13.988 24.972-23.713 6.849-9.724 11.566-22.227 2.811-23.228h-1.292c-6.978 0-19.868 5.007-27.525 5.007-2.746 0-4.846-.646-5.75-2.39-3.618-6.914 11.339-31.176 10.564-41.579-.356-4.943-4.232-6.784-8.852-6.784a23.611 23.611 0 0 0-14.408 5.169c-5.977 5.363-1.357 12.729-2.229 21.742-.873 9.014-6.849 18.964-17.316 18.964h-1.066c-11.081-.743-26.911-12.922-33.533-13.536h-.582c-5.912 0-3.457 10.467-.969 20.967a164.339 164.339 0 0 0-21.419-2.326 16.958 16.958 0 0 0-6.784 1.001c-4.813 2.132-2.746 8.206-.71 14.28-4.847-.291-9.692-.55-13.989-.55-6.655 0-11.889.647-13.568 3.005-2.714 3.844 4.2 12.276 11.113 20.676l120.532 3.295Z" fill="#D2D7FB"/><path d="M177.164 290.888c1.357.258 2.261 1.518 2.714 3.747l5.201 25.845a19.678 19.678 0 0 0 4.878 8.109 4.008 4.008 0 0 0 2.552 1.131 5.785 5.785 0 0 0 2.423-.485 52.89 52.89 0 0 0 8.432-5.04 13.644 13.644 0 0 1 4.297-1.744 6.402 6.402 0 0 1 1.356 0 4.236 4.236 0 0 1 3.813 2.164 16.586 16.586 0 0 1 1.615 5.266 125.985 125.985 0 0 1-21.451 20.289l-2.262 1.744L70.2 348.522a87.669 87.669 0 0 1-10.176-13.795c-1.97-3.424-2.035-5.976-.226-7.592l.614.162 6.17 2.811a34.573 34.573 0 0 0 5.395 1.518 168.326 168.326 0 0 0 16.864 2.358l8.625 2.197 1.874.194a6.057 6.057 0 0 0 1.647 0c2.682-.872 3.716-2.423 3.069-4.717a10.624 10.624 0 0 0-1.647-3.23 60.142 60.142 0 0 1-5.557-8.206 2.263 2.263 0 0 1 0-2.262l.97-.969a2.39 2.39 0 0 1 1.292-.226c.6.046 1.189.188 1.744.42l14.085 7.237a22.311 22.311 0 0 0 6.139 1.809h1.292a5.303 5.303 0 0 0 2.261-1.486l5.783-8.109a6.449 6.449 0 0 1 2.358-1.712l1.551-.324h.904a15.85 15.85 0 0 1 5.428 1.713c1.777.969 4.716 2.875 8.722 5.653a22.568 22.568 0 0 0 3.489 1.842c1.177.475 2.418.769 3.683.872a6.455 6.455 0 0 0 2.585-.355c2.455-.453 4.942-2.779 7.43-7.011a103.029 103.029 0 0 0 6.687-22.614 4.489 4.489 0 0 1 3.909-3.812Z" fill="#000" fill-opacity=".102"/><path d="m199.584 338.12-6.299.387C48.491 348.759-14.958 356.922 2.94 362.996a33.568 33.568 0 0 0 12.34 3.456c16.929 2.456 54.619 6.946 113.07 13.472a675.84 675.84 0 0 1 28.558 3.974c9.347 1.508 37.636 7.204 84.867 17.09a515.332 515.332 0 0 0 28.332 4.749 283.404 283.404 0 0 0 57.763 2.714c39.585-3.252 85.427-12.266 137.525-27.041 35.902-10.015 46.757-17.757 32.564-23.228-77.081-22.141-176.54-28.828-298.375-20.062ZM113.134 384.512c-43.612 1.647-87.225 3.23-70.07 7.398 15.894 3.844 84.22 9.692 112.52 9.692h5.783c23.292-1.034-7.98-9.692-25.102-13.827a93.668 93.668 0 0 0-19.932-3.522 20.892 20.892 0 0 0-3.199.259ZM279.831 94.076s15.442 14.732 24.779 19.643c29.624 15.636 62.059 25.845 94.461 34.374 9.434 2.52 23.487 7.657 33.986 7.657 6.461 0 11.598-1.971 13.439-7.689 3.231-10.145-2.94-21.355-7.043-31.176-6.848-16.153-14.02-32.307-21.871-48.17-11.823-23.744-24.003-59.734-50.461-61.381h-1.777c-12.599 0-24.358 8.948-34.696 16.347a183.214 183.214 0 0 0-38.767 36.732c-6.041 7.818-12.502 16.735-13.148 26.718.097 2.35.466 4.68 1.098 6.945ZM201.813 0a78.03 78.03 0 0 0-10.693 10.887 180.642 180.642 0 0 0-19.383 39.608c-2.843 8.044-9.143 21.29-1.745 25.554a26.912 26.912 0 0 0 13.698 3.231 108.767 108.767 0 0 0 24.164-4.168c9.24-2.196 21.548-4.038 25.522-12.664 7.366-15.959-7.43-35.278-17.284-49.849-3.23-4.555-6.461-9.691-11.307-12.05-.965-.3-1.963-.485-2.972-.549Z" fill="#F0F0F0"/><path d="M152.741 356.825h-.581c-23.519 2.498-29.517 7.129-17.995 13.892 37.41 8.615 62.318 11.846 74.723 9.692a147.758 147.758 0 0 0 16.153-2.972 423.47 423.47 0 0 1 43.742-10.371c1.97-.452 7.947-1.001 17.929-1.712 4.006-.28 16.089-.549 36.247-.808 4.006 0 8.044-.258 12.05-.517 16.325-1.076 29-2.056 38.024-2.94 11.652-.969 28.881-2.961 51.689-5.976a35.91 35.91 0 0 0 4.555-.226c2.229-.614 2.714-1.551 1.389-2.843-9.045-1.336-44.345-3.414-105.898-6.235-27.998-1.25-47.597-1.702-58.796-1.357a458.878 458.878 0 0 0-43.871 2.552c-25.091 2.735-48.211 6.009-69.36 9.821Z" fill="#000" fill-opacity=".106"/><path d="M365.958 154.328v-2.875h2.875v2.843l-2.875.032Zm0-8.561.259-17.187h2.972l-.259 17.187h-2.972Zm2.908-23.196h2.875v2.875h-2.875v-2.875Zm8.625 0h17.187v2.875h-17.187v-2.875Zm22.905 0h2.875v2.875h-2.875v-2.875Zm8.625 0h17.187v2.875h-17.187v-2.875Zm22.905 0h2.875v2.875h-2.875v-2.875Zm-66.485 54.404.259-17.219h2.875l-.291 17.187-2.843.032ZM309.682 69.136V66.26h2.843v2.875h-2.843Zm0-8.594.161-17.219h2.875V60.51l-3.036.032Zm2.778-23.228h2.875v2.875h-2.875v-2.875Zm8.593 0h17.187v2.875h-17.187v-2.875Zm22.937 0h2.876v2.875h-2.876v-2.875Zm8.594 0h17.186v2.875h-17.186v-2.875Zm22.937 0h2.842v2.843h-2.713l-.129-2.843Zm8.593 0h17.38v2.843h-17.186l-.194-2.843Zm-74.626 54.76v-17.22h2.875v17.187l-2.875.032ZM273.532 51.464V48.59h2.843v2.843l-2.843.032Zm0-8.593V25.684h2.843V42.87h-2.843Zm-.485-19.578h-2.843v-2.875h2.843v2.875Zm-8.593 0h-17.187V20.45h17.187v2.843Zm-22.873-.29h-2.875v-2.876h2.843l.032 2.875Zm-8.625 0h-17.187v-2.876l17.187.162v2.713Zm-22.905-.195h-2.875v-3.036h2.843l.032 3.036Zm-8.593 0h-17.219v-3.036h17.187l.032 3.036Zm72.041 51.69V57.216h2.876v17.187l-2.876.097ZM199.423 195.713v-2.876h2.843v2.876h-2.843Zm0-8.626-.291-17.22h2.875l.291 17.187-2.875.033Zm0-20.353h-2.876v-2.876h2.876v2.876Zm-8.594 0h-17.412v-2.843h17.186l.226 2.843Zm-22.937 0h-2.875v-2.876h2.875v2.876Zm-8.593 0h-17.187v-2.876h17.09l.097 2.876Zm40.705 51.916-.291-17.187h2.876l.258 17.187h-2.843Z" fill="#FA8C3C"/><path d="M466.105 124.606v1.809a1.247 1.247 0 0 0 0 .323 16.96 16.96 0 0 1-6.461 11.017 16.647 16.647 0 0 1-5.925 2.878 16.648 16.648 0 0 1-6.577.352h-.194a16.895 16.895 0 0 1-10.984-6.461l-.193-.258a22.087 22.087 0 0 1-2.617-4.652 5.38 5.38 0 0 1-.259-1.551v.969a17.28 17.28 0 0 1-.581-4.491 16.523 16.523 0 0 1 4.943-11.856 16.799 16.799 0 0 1 11.856-4.943h.161a16.764 16.764 0 0 1 11.856 4.943 16.696 16.696 0 0 1 4.975 11.598 3.488 3.488 0 0 1-5.821 2.656 3.454 3.454 0 0 1-1.124-2.333 9.986 9.986 0 0 0-2.908-7.14 10.013 10.013 0 0 0-7.139-2.907h.161a9.938 9.938 0 0 0-7.107 2.907 10.148 10.148 0 0 0-2.94 7.14c.019.894.138 1.782.356 2.649.049.31.049.627 0 .937a2.352 2.352 0 0 0 0-.517 16.598 16.598 0 0 0 1.809 3.231l-.194-.259a10.136 10.136 0 0 0 6.622 3.812h-.161a10.076 10.076 0 0 0 7.527-1.97 9.984 9.984 0 0 0 3.78-6.461v.323-1.81a3.464 3.464 0 0 1 6.913.453l.226-.388ZM436.514 36.7v1.842a.887.887 0 0 0 0 .29 16.965 16.965 0 0 1-6.462 11.017 16.628 16.628 0 0 1-12.502 3.23h-.194a16.643 16.643 0 0 1-10.984-6.46l-.193-.26a22.083 22.083 0 0 1-2.617-5.007 5.16 5.16 0 0 1-.259-1.518v.937a17.147 17.147 0 0 1-.581-4.49 16.613 16.613 0 0 1 4.943-11.857 16.797 16.797 0 0 1 11.856-4.943c4.46.014 8.733 1.79 11.888 4.943a16.865 16.865 0 0 1 4.943 11.856 3.49 3.49 0 0 1-6.946.194 10.017 10.017 0 0 0-2.907-7.14 10.02 10.02 0 0 0-7.14-2.907 9.948 9.948 0 0 0-7.107 2.907 10.176 10.176 0 0 0-2.94 7.14c.019.894.138 1.782.356 2.65.049.31.049.626 0 .936a2.48 2.48 0 0 0 0-.517 16.606 16.606 0 0 0 1.809 3.23l-.194-.258a10.142 10.142 0 0 0 6.623 3.813h-.162a10.078 10.078 0 0 0 7.527-1.971 9.918 9.918 0 0 0 3.78-6.461v.29-1.809A3.455 3.455 0 0 1 430.223 34a3.464 3.464 0 0 1 5.741 2.83l.55-.129ZM190.668 21.775v2.131a16.834 16.834 0 0 1-6.461 11.017 16.74 16.74 0 0 1-12.535 3.392h-.161a16.832 16.832 0 0 1-11.017-6.46l-.193-.26a25.234 25.234 0 0 1-2.617-5.007 5.209 5.209 0 0 1-.226-1.518v.937a15.824 15.824 0 0 1-.614-4.49 16.861 16.861 0 0 1 4.943-11.857 16.861 16.861 0 0 1 11.856-4.943h.194a16.865 16.865 0 0 1 11.856 4.943 16.86 16.86 0 0 1 4.942 11.856 3.484 3.484 0 0 1-3.384 3.264 3.487 3.487 0 0 1-3.561-3.07 10.016 10.016 0 0 0-2.908-7.14 10.009 10.009 0 0 0-7.139-2.907h.194a10.01 10.01 0 0 0-7.14 2.907 10.016 10.016 0 0 0-2.907 7.14 9.024 9.024 0 0 0 .355 2.65c.034.31.034.625 0 .936.02-.172.02-.345 0-.517a18.757 18.757 0 0 0 1.809 3.23l-.162-.258a10.082 10.082 0 0 0 6.462 3.813h-.162a10.076 10.076 0 0 0 7.527-1.971 10.078 10.078 0 0 0 3.812-6.462v-1.938a3.493 3.493 0 0 1 3.684-3.008 3.49 3.49 0 0 1 3.262 3.46l.291.13ZM144.535 169.964v1.809a.979.979 0 0 1 0 .324 16.701 16.701 0 0 1-6.461 10.984 16.797 16.797 0 0 1-12.502 3.23h-.194a16.895 16.895 0 0 1-10.984-6.461l-.194-.258a22.14 22.14 0 0 1-2.616-5.008 5.52 5.52 0 0 1-.259-1.551v.97a18.817 18.817 0 0 1-.614-4.491 16.704 16.704 0 0 1 4.975-11.856 16.477 16.477 0 0 1 11.857-4.943 16.523 16.523 0 0 1 11.856 4.943 16.53 16.53 0 0 1 4.943 11.856 3.455 3.455 0 0 1-1.013 2.444 3.465 3.465 0 0 1-2.444 1.013 3.465 3.465 0 0 1-3.457-3.457 10.108 10.108 0 0 0-2.94-7.107 10.108 10.108 0 0 0-7.107-2.94 10.032 10.032 0 0 0-7.107 2.94 9.978 9.978 0 0 0-2.94 7.107c0 .895.12 1.786.355 2.649.049.321.049.648 0 .969.038-.17.038-.346 0-.517a19.838 19.838 0 0 0 1.842 3.231l-.194-.258a9.98 9.98 0 0 0 6.623 3.779h-.162c2.671.36 5.375-.349 7.527-1.97a10.013 10.013 0 0 0 3.812-6.461v.323-1.842a3.466 3.466 0 0 1 6.914.485l.484.064Z" fill="#FA8C3C"/><path d="M215.511 70.977a5.36 5.36 0 0 0-3.845 1.583 5.46 5.46 0 0 0-1.583 3.845v141.502a5.403 5.403 0 0 0 1.581 3.848 5.387 5.387 0 0 0 3.847 1.58h102.215a5.46 5.46 0 0 0 5.459-5.428V76.405a5.457 5.457 0 0 0-5.459-5.428H215.511Z" fill="#182153"/><path d="M221.229 89.392h51.334a1.873 1.873 0 0 1 0 3.748h-51.334a1.873 1.873 0 1 1 0-3.748Z" fill="#5230D7"/><path d="M221.229 111.005h86.579a1.87 1.87 0 0 1 1.874 1.874 1.877 1.877 0 0 1-1.874 1.874h-86.579a1.876 1.876 0 0 1-1.325-3.199 1.875 1.875 0 0 1 1.325-.549Z" fill="#F15B28"/><path d="M221.229 133.297h73.883a1.907 1.907 0 0 1 1.874 1.906 1.877 1.877 0 0 1-1.874 1.873h-73.883a1.907 1.907 0 0 1-1.906-1.873 1.94 1.94 0 0 1 1.906-1.906Z" fill="#33E8C5"/><path d="M221.229 151.905h50.655a1.876 1.876 0 0 1 1.874 1.874 1.906 1.906 0 0 1-1.874 1.906h-50.655a1.938 1.938 0 0 1-1.906-1.906 1.905 1.905 0 0 1 1.906-1.874Z" fill="#96A1FF"/><path d="M329.097 138.821a69.655 69.655 0 0 0-60.67 35.537 59.165 59.165 0 0 0-19.383-3.651 53.92 53.92 0 0 0-51.883 68.135c0 2.649 3.231 8.852 9.304 18.544a53.725 53.725 0 0 0 35.278 20.45c2.393.255 4.798.384 7.204.387h4.297v.582h154.711c1.422.129 2.811.194 4.168.194a43.686 43.686 0 0 0 27.46-9.692 45.463 45.463 0 0 0 17.348-29.948l.42-6.171a45.532 45.532 0 0 0-13.375-32.306 44.192 44.192 0 0 0-32.305-13.375 45.903 45.903 0 0 0-15.572 2.617 67.364 67.364 0 0 0-17.8-30.821 69.224 69.224 0 0 0-49.202-20.482Z" fill="#E7F3F6"/><path d="M411.574 187.345c-4.97-.02-9.91.754-14.635 2.294l-.194.549 3.231 1.777c17.23 9.304 26.921 18.038 29.075 26.201 3.963 10.575 1.217 20.6-8.238 30.077-3.877 4.652-14.85 8.96-32.919 12.922-15.615 3.08-39.306 5.234-71.073 6.462-6.719.258-13.148.42-19.383.42-33.921 0-59.561-4.308-76.92-12.923a73.136 73.136 0 0 1-24.778-23.454c.324 2.396.799 4.77 1.421 7.107 0 2.649 3.231 8.852 9.304 18.544a53.725 53.725 0 0 0 35.278 20.45c2.393.255 4.798.385 7.204.388h4.297v.581h154.711c1.422.129 2.811.194 4.168.194a43.676 43.676 0 0 0 27.46-9.692 45.458 45.458 0 0 0 17.348-29.948l.42-6.171a45.527 45.527 0 0 0-13.375-32.306 44.195 44.195 0 0 0-32.402-13.472Z" fill="#000" fill-opacity=".11"/><path d="M374.422 194.937a3.393 3.393 0 0 0-3.23 2.359 34.73 34.73 0 0 1-11.889 16.702 34.436 34.436 0 0 1-21.645 7.269 39.676 39.676 0 0 1-4.749-.258 37.176 37.176 0 0 1-5.201-1.163 3.359 3.359 0 0 0-1.001 0 3.457 3.457 0 0 0-3.457 3.424c-.323 23.368 8.152 45.337 25.425 65.905 1.981 2.908 8.302 8.292 18.963 16.154h.194c1.066.678 2.164 1.324 3.23 1.97a3.23 3.23 0 0 0 1.745.485 3.244 3.244 0 0 0 1.648-.42 98.878 98.878 0 0 0 13.439-8.788 96.917 96.917 0 0 0 36.86-63.643v-.323l.679-10.274a3.453 3.453 0 0 0-1.939-3.392 3.548 3.548 0 0 0-1.518-.323 3.212 3.212 0 0 0-.969 0c-1.55.425-3.125.749-4.717.969h-.646c-.881.076-1.767.076-2.649 0-1.647 0-3.812 0-6.461-.226a43.947 43.947 0 0 1-6.073-1.454h-.614a42.727 42.727 0 0 1-7.624-3.747 34.935 34.935 0 0 1-8.755-8.045 40.364 40.364 0 0 1-5.751-10.984 3.42 3.42 0 0 0-3.23-2.358l-.065.161Z" fill="#D2D7FB"/><path d="M373.679 226.533a14.273 14.273 0 0 0-10.011 4.194 14.276 14.276 0 0 0-4.171 10.021c-.01 1.289.164 2.572.517 3.812l.614 1.745a14.054 14.054 0 0 0 6.461 7.075v21.677a5.851 5.851 0 0 0 3.602 5.432 5.84 5.84 0 0 0 2.245.448 5.882 5.882 0 0 0 5.621-5.944v-20.935a14.823 14.823 0 0 0 3.748-2.1 14.505 14.505 0 0 0 5.459-9.401v-1.938a14.343 14.343 0 0 0-14.311-14.312l.226.226Z" fill="#0A067A"/><path d="M422.041 220.524a3.212 3.212 0 0 0-.969 0c-1.55.425-3.125.749-4.717.969h-.646c-.882.077-1.768.077-2.649 0h-5.201a87.787 87.787 0 0 1 0 24.327 75.667 75.667 0 0 1-10.92 29.657c-6.806 9.778-12.922 16.024-18.349 18.738a62.297 62.297 0 0 1-15.927 7.075l4.813 3.586h.194c1.066.679 2.165 1.325 3.231 1.971a3.235 3.235 0 0 0 1.744.485 3.244 3.244 0 0 0 1.648-.42 98.878 98.878 0 0 0 13.439-8.788 96.918 96.918 0 0 0 36.861-63.644v-.323l.678-10.273a3.453 3.453 0 0 0-1.938-3.392 3.53 3.53 0 0 0-1.292.032Z" fill="#000" fill-opacity=".106"/><path d="m364.311 229.925-.776.711a14.11 14.11 0 0 0-4.038 10.112 12.51 12.51 0 0 0 .517 3.812l.614 1.745a14.054 14.054 0 0 0 6.461 7.075v21.677a5.851 5.851 0 0 0 3.602 5.432 5.848 5.848 0 0 0 7.931-4.042 5.858 5.858 0 0 1-2.488.549 5.912 5.912 0 0 1-5.847-5.912v-21.646a14.255 14.255 0 0 1-4.587-3.909 14.004 14.004 0 0 1-1.842-3.23l-.614-1.745a12.509 12.509 0 0 1-.516-3.812 14.465 14.465 0 0 1 1.583-6.817Z" fill="#000" fill-opacity=".216"/><path d="M230.598 333.92c2.681 5.007 5.395 9.983 4.684 14.085-.711 4.103-4.846 7.366-7.753 10.823-2.908 3.457-4.362 6.72-.227 6.72h.873a52.043 52.043 0 0 0 21.483-9.143c4.167-3.941.355-7.107-3.489-10.273l-5.072-14.764-10.499 2.552Z" fill="#FA8C3C"/><path d="M246.912 346.648a20.898 20.898 0 0 1-7.818 6.72c-.681.3-1.421.444-2.165.42a12.935 12.935 0 0 1-4.135-.807l-.549.678-4.716 5.169a17.76 17.76 0 0 0-1.745 2.423 7.935 7.935 0 0 0-.743 1.486l-.194.679a1.878 1.878 0 0 0 0 1.13c.259.679 1.066 1.002 2.391 1.002a11.097 11.097 0 0 0 2.326-.259 33.05 33.05 0 0 0 3.553-.872 64.383 64.383 0 0 0 6.203-2.164 52.964 52.964 0 0 0 5.977-2.843 33.015 33.015 0 0 0 3.23-2.003 6.655 6.655 0 0 0 2.972-3.813 4.329 4.329 0 0 0-1.033-3.424 19.107 19.107 0 0 0-3.586-3.522h.032Z" fill="#0A067A"/><path d="M225.493 336.375a28.782 28.782 0 0 0 10.532 4.555 16.54 16.54 0 0 0 1.809 0 17.374 17.374 0 0 0 9.046-2.681 34.711 34.711 0 0 0 8.044-7.786c-10.112-33.793-20.224-67.585-14.538-76.405a6.232 6.232 0 0 1 5.718-2.681c8.335 0 22.356 8.27 33.146 8.27.774.05 1.551.05 2.326 0 14.053-1.809 20.74-21.516 5.556-32.823-7.301-5.428-19.641-8.949-32.047-8.949-13.439 0-26.943 4.135-34.179 14.344-13.924 19.739-4.684 62.158 4.587 104.156Z" fill="#6660FF"/><path d="M255.634 218.133a92.425 92.425 0 0 0-10.531.614 41.999 41.999 0 0 0-17.704 6.978 20.93 20.93 0 0 0-2.132 1.745l1.874.42 26.394 4.652a6.695 6.695 0 0 1 4.845 3.231 2.294 2.294 0 0 1-.323 1.583c0 .193-.84 1.13-2.713 2.746-11.695 7.301-18.425 12.093-20.191 14.376a25.209 25.209 0 0 0-4.749 6.461 20.554 20.554 0 0 0-1.713 4.846 38.132 38.132 0 0 0 1.357 18.609 88.517 88.517 0 0 0 4.297 11.889l7.85 16.153c.291.517 1.002 2.197 2.132 5.007a55.842 55.842 0 0 1 3.619 14.926 6.983 6.983 0 0 1-3.231 7.301 17.272 17.272 0 0 1-7.204 1.809 11.497 11.497 0 0 1-3.651-.581c.259.614.485 1.228.711 1.841a27.877 27.877 0 0 1 4.038-.355c6.311 0 8.357 3.468 6.138 10.403-2.939 4.91-6.461 7.366-10.499 7.366a13.663 13.663 0 0 1-6.203-1.713l-.581.614a17.91 17.91 0 0 0-1.745 2.423 7.935 7.935 0 0 0-.743 1.486l-.193.679a1.863 1.863 0 0 0 0 1.13c.258.679 1.066 1.002 2.39 1.002a11.097 11.097 0 0 0 2.326-.259c1.2-.225 2.386-.516 3.554-.872a64.365 64.365 0 0 0 6.202-2.164 52.964 52.964 0 0 0 5.977-2.843 33.03 33.03 0 0 0 3.231-2.003 6.66 6.66 0 0 0 2.972-3.813 4.331 4.331 0 0 0-1.034-3.424 19.012 19.012 0 0 0-3.586-3.521l-.388-.808-2.132-6.171a29.913 29.913 0 0 0 10.758-9.304c-7.861-25.845-12.718-43.904-14.57-54.178a103.192 103.192 0 0 1-1.518-11.307v-4.555l.517-3.651 1.098-2.714a6.182 6.182 0 0 1 2.362-2.052 6.18 6.18 0 0 1 3.065-.629h.711c2.287.248 4.547.703 6.752 1.357a116.501 116.501 0 0 0 23.228 6.816c.943.115 1.892.169 2.843.162h1.195c.344.017.689.017 1.034 0a15.806 15.806 0 0 0 6.461-2.261 25.46 25.46 0 0 0 2.003-1.584v-3.23a72.96 72.96 0 0 0-3.425-22.905c-.517-1.551-1.066-3.231-1.68-4.491a55.886 55.886 0 0 0-29.495-7.237Z" fill="#000" fill-opacity=".106"/><path d="M186.985 249.148a33.926 33.926 0 0 0-12.244-3.845 9.12 9.12 0 0 0-2.132.259c-4.071 1.033-6.978 5.395-10.209 8.561a9.421 9.421 0 0 1-4.975 3.23c-1.066 0-1.777-.904-1.712-3.23a51.7 51.7 0 0 1 7.398-22.227 4.654 4.654 0 0 1 3.554-2.1c2.358 0 4.652 2.391 6.945 4.749l15.119 3.941-1.744 10.662Z" fill="#FA8C3C"/><path d="M173.061 233.834a20.889 20.889 0 0 0-6.106 8.303 5.26 5.26 0 0 0-.226 2.197 13.327 13.327 0 0 0 1.099 4.071l-.614.581-4.781 5.104a22.814 22.814 0 0 1-2.262 1.939 8.751 8.751 0 0 1-1.453.84l-.647.258a2.23 2.23 0 0 1-1.13 0c-.679-.194-1.066-.969-1.163-2.261a11.92 11.92 0 0 1 0-2.359c.116-1.217.311-2.425.581-3.618.84-3.457 1.389-5.557 1.712-6.461a55.965 55.965 0 0 1 2.359-6.171 31.894 31.894 0 0 1 1.744-3.23 6.623 6.623 0 0 1 3.586-3.231 4.275 4.275 0 0 1 3.489.743 20.287 20.287 0 0 1 3.78 3.231l.032.064Z" fill="#0A067A"/><path d="M190.732 231.799c20.547 7.495 41.093 14.958 56.503 14.958 2.285.01 4.566-.185 6.816-.582 15.798-2.907 23.713-17.348 33.081-19.06a10.781 10.781 0 0 1 2.003-.194c8.884 0 18.188 10.241 16.67 20.902-1.615 11.436-15.733 23.39-38.767 24.456h-3.553c-22.873 0-53.531-9.304-83.995-18.609-.71-3.267-.71-6.65 0-9.918a22.03 22.03 0 0 1 5.621-8.69 14.825 14.825 0 0 1 5.621-3.263Z" fill="#5B56E4"/><path d="M289.232 226.921c-1.507.001-3 .298-4.393.872a20.033 20.033 0 0 0-4.588 2.617l-9.885 7.883a53.563 53.563 0 0 1-5.783 3.941 34.92 34.92 0 0 1-5.072 2.391l.969.517a25.881 25.881 0 0 0 6.106 2.39c1.92.473 3.876.786 5.847.937l9.692.937a7.842 7.842 0 0 1 3.231 1.583c3.833 3.834 3.026 8.227-2.423 13.181-3.166 2.541-8.798 3.823-16.896 3.845-15.894 0-41.244-4.911-76.048-14.732a33.192 33.192 0 0 1-8.367-3.715c-1.873-1.648-2.713-2.65-2.552-3.07-.614-1.098 0-3.23 1.486-6.041l4.652-5.654a23.662 23.662 0 0 0-1.97 2.036l-4.911-1.293a18.648 18.648 0 0 1-3.65 6.462 3.237 3.237 0 0 1-1.325.678 9.243 9.243 0 0 0-4.717 1.034 24.698 24.698 0 0 0-5.007 5.428 2.04 2.04 0 0 1-1.163.678h-.194a22.13 22.13 0 0 1 .711-15.055 8.205 8.205 0 0 1 5.169-4.943 3.24 3.24 0 0 0-1.551-.194 2.468 2.468 0 0 0-.84 0 6.627 6.627 0 0 0-3.586 3.231 31.909 31.909 0 0 0-1.744 3.231 55.949 55.949 0 0 0-2.359 6.17c-.323.808-.872 2.908-1.712 6.462a28.647 28.647 0 0 0-.387 3.65v1.389c-.045.651.01 1.304.161 1.939a1.644 1.644 0 0 0 1.034 1.292c.149.033.303.033.452 0h.614c.285-.064.558-.173.808-.323.425-.219.836-.467 1.227-.743.195-.124.379-.265.549-.42.42-.323.97-.84 1.68-1.486l4.814-5.105a23.8 23.8 0 0 1 1.647-1.486 9.98 9.98 0 0 1 3.748-1.97 6.897 6.897 0 0 1 1.938-.259c1.019.027 2.035.135 3.037.323l1.292.291a30.268 30.268 0 0 0 .291 7.85c23.109 7.151 40.468 11.965 52.077 14.441a165.485 165.485 0 0 0 30.431 4.2h4.62a59.202 59.202 0 0 0 20.611-4.264 43.538 43.538 0 0 0 7.527-4.071l3.231-2.39a28.795 28.795 0 0 0 4.781-5.234 17.776 17.776 0 0 0 2.778-16.153 20.627 20.627 0 0 0-3.747-6.688 18.534 18.534 0 0 0-7.786-5.653 12.895 12.895 0 0 0-4.555-.937Z" fill="#000" fill-opacity=".106"/><path d="m228.078 220.072 6.202 12.115c12.923-6.462 25.845-12.923 35.537-27.105 9.691-14.183 15.894-36.087 13.536-43.517a3.841 3.841 0 0 0-3.845-3.069c-4.361 0-11.016 5.718-14.763 13.213-5.234 10.5-4.749 24.424-9.886 33.082-5.137 8.658-15.991 11.824-26.781 15.281Z" fill="#FA8C3C"/><path d="M278.539 163.923a12.925 12.925 0 0 0-7.172 2.197v.194a14.79 14.79 0 0 0-3.424 6.978c-.215 0-1.4 6.903-3.554 20.708a47.965 47.965 0 0 1-1.744 6.462 43.258 43.258 0 0 1-5.589 10.628 29.532 29.532 0 0 1-9.692 8.949 30.63 30.63 0 0 1-4.781 2.036c-5.33 1.68-9.175 2.875-11.469 3.683l3.231 6.299a124.405 124.405 0 0 0 21.968-12.922 65.299 65.299 0 0 0 8.432-7.786 62.11 62.11 0 0 0 5.072-6.461 93.367 93.367 0 0 0 11.242-24.295 65.115 65.115 0 0 0 2.52-11.275 44.27 44.27 0 0 0 .226-5.137 42.898 42.898 0 0 0-4.684-.323l-.582.065Z" fill="#000" fill-opacity=".106"/><path d="M254.536 218.553c3.004 6.462 5.977 12.923 14.538 16.961 8.561 4.039 22.613 5.363 36.796 6.752 6.461-32.823 13.18-65.646 5.298-79.732a18.83 18.83 0 0 0-17.413-8.981 32.822 32.822 0 0 0-21.548 7.979c-8.593 8.432-3.456 20.644-4.103 30.788-.646 10.145-7.107 18.06-13.568 26.233Z" fill="#fff"/><path d="m309.197 164.408-1.454 1.26c-6.848 5.815-10.381 10.758-10.596 14.828a19.156 19.156 0 0 0 0 6.203c.85 5.615 2.004 11.18 3.457 16.67.463 2.21.679 4.463.646 6.72a15.828 15.828 0 0 1-3.909 10.467c-3.015 3.683-8.4 6.408-16.153 8.174a38.137 38.137 0 0 1-6.461.581 18.576 18.576 0 0 1-9.692-2.326 15.221 15.221 0 0 1-6.461-7.43 27.587 27.587 0 0 1-1.454-4.103c-.807 1.001-1.647 2.035-2.552 3.231l.743 1.615a27.173 27.173 0 0 0 13.795 15.345c5.298 2.822 17.563 5.073 36.796 6.753a407.898 407.898 0 0 0 8.658-53.726 91.148 91.148 0 0 0 0-12.212l-.614-5.266-1.131-4.62-.258-.581-3.36-1.583Z" fill="#000" fill-opacity=".106"/><path d="M215.188 206.245a1.19 1.19 0 0 0-1.26 0 1.32 1.32 0 0 0-.323 1.259l5.653 31.176a3.977 3.977 0 0 0 2.294 2.682l43.322 14.764c1.066.355 1.777-.259 1.551-1.389l-5.654-31.176a3.817 3.817 0 0 0-2.294-2.714l-21.741-7.237-21.645-7.365h.097Z" fill="#182153"/><path d="M241.065 222.462v.388a1.555 1.555 0 0 1-.711 1.551 2.137 2.137 0 0 1-1.971 0 5.266 5.266 0 0 1-2.035-1.745 5.733 5.733 0 0 1-.678-1.195 3.777 3.777 0 0 1-.227-.808 1.883 1.883 0 0 1 .42-1.809 1.783 1.783 0 0 1 1.842-.194 5.56 5.56 0 0 1 2.132 1.519c.579.66.999 1.445 1.228 2.293Z" fill="#fff"/><path d="M267.491 247.694a21.513 21.513 0 0 1-5.105 1.001 3.52 3.52 0 0 1-2.423-.775 7.427 7.427 0 0 1-1.259-6.461.71.71 0 0 1 .71-.55c.582 0 1.357.647 2.068 1.034a3.848 3.848 0 0 0 1.841.453h.808l-.775-4.459c.225-.03.453-.03.678 0a.623.623 0 0 1 .517.259c.292.663.508 1.356.646 2.067a6.064 6.064 0 0 0 1.034 1.745c17.929-9.401 35.891-18.835 39.865-29.754 3.973-10.92-5.977-23.261-8.432-36.087-1.874-10.015.775-20.288 6.267-20.288a7.944 7.944 0 0 1 5.298 2.714c8.885 8.593 21.548 39.058 15.249 57.602-6.3 18.544-31.66 24.908-56.987 31.499Z" fill="#FA8C3C"/><path d="M303.899 155.717a4.489 4.489 0 0 0-1.292.194 7.203 7.203 0 0 0-3.942 4.394 20.716 20.716 0 0 0-1.421 5.976 32.729 32.729 0 0 0 0 4.749c.174 2.17.476 4.328.905 6.462 3.489-3.877 6.138-5.848 7.979-5.912a9.603 9.603 0 0 1 1.357 0 10.462 10.462 0 0 1 8.302 4.943 35.536 35.536 0 0 1 6.462 18.091 32.748 32.748 0 0 1-.937 10.5 31.69 31.69 0 0 1-3.425 8.012c-5.879 9.864-19.62 19.814-41.222 29.851a25.848 25.848 0 0 1-9.207 2.294h-.258a15.637 15.637 0 0 1-3.231 1.357c-.343.045-.69.045-1.034 0a3.248 3.248 0 0 1-1.163-.194 3.953 3.953 0 0 1-2.365-2.338 3.942 3.942 0 0 1 .266-3.316.714.714 0 0 0-.453.162 6.908 6.908 0 0 0 1.034 6.816 3.22 3.22 0 0 0 2.455.776 14.763 14.763 0 0 0 4.168-.776l.904-.226c19.384-4.76 32.898-9.39 40.544-13.892a45.62 45.62 0 0 0 8.432-5.944l3.23-3.521 2.682-3.942 1.97-4.361 1.196-4.878c.532-3.55.641-7.151.323-10.726a80.23 80.23 0 0 0-5.428-22.195 69.98 69.98 0 0 0-9.175-17.122c-2.778-3.457-5.298-5.234-7.656-5.234Z" fill="#000" fill-opacity=".106"/><path d="M282.771 155.459a7.505 7.505 0 0 0 1.745-3.457 12.934 12.934 0 0 0-.84-4.555 7.534 7.534 0 0 1-3.425 1.389 2.617 2.617 0 0 1-2.293-1.615 19.385 19.385 0 0 1-.808-13.149 6.038 6.038 0 0 1 5.589-4.071 5.438 5.438 0 0 1 2.552.646 12.923 12.923 0 0 1 4.91 8.885c.517 3.23 0 5.459.227 7.689a21.162 21.162 0 0 0 2.681 6.461 13.606 13.606 0 0 1-5.298 3.037 2.98 2.98 0 0 1-.743 0 10.025 10.025 0 0 1-4.297-1.26Z" fill="#FA8C3C"/><path d="M280.445 131.617a9.618 9.618 0 0 0-1.874 0l-.42.452a5.6 5.6 0 0 0-.71 1.131l-.291.646-.355 1.034a21.88 21.88 0 0 0-.388 2.261v2.488c0 .323 0 1.13.226 2.39h.194c.517-.29 2.003-1.389 4.49-3.23a6.58 6.58 0 0 1 1.325-.808c.317-.143.655-.23 1.001-.258h.453c.287.073.546.23.743.452.243.217.441.481.581.775.237.493.411 1.014.517 1.551a9.393 9.393 0 0 1 0 2.811 7.114 7.114 0 0 1-2.326 4.07v1.066l.42-.194a11.27 11.27 0 0 1 3.941-1.033h.194a2.102 2.102 0 0 1 1.874 1.712c.444 1.88.366 3.847-.226 5.686a7.076 7.076 0 0 1-.905 1.777 19.143 19.143 0 0 0 4.265-2.779 23.775 23.775 0 0 1-2.456-5.427 10.63 10.63 0 0 1-.323-2.229v-5.04a18.223 18.223 0 0 0-.323-2.359 17.105 17.105 0 0 0-1.066-3.392l-.872-.71-.808-.55a11.313 11.313 0 0 0-1.712-1.001 10.669 10.669 0 0 0-2.811-1.002 7.956 7.956 0 0 0-1.906-.258l-.452-.032Z" fill="#000" fill-opacity=".106"/><path d="M290.751 132.844a5.53 5.53 0 0 1 1.421 3.78c0 2.068-.291 5.363-1.777 5.363-1.583 0-4.329-3.845-5.653-4.135-1.163 0-1.099 2.972-1.002 5.976a11.408 11.408 0 0 1-1.712-3.973c-.291-1.583 0-3.586-.355-3.586a10.827 10.827 0 0 1-2.423 3.23 5.846 5.846 0 0 1-3.231.937 6.91 6.91 0 0 1-3.23-.743 8.396 8.396 0 0 1-4.297-6.461 7.747 7.747 0 0 1 2.811-7.269 5.234 5.234 0 0 1 2.455-.517c1.26 0 2.52.258 3.521.258h.646c1.745-.258 2.294-1.776 3.231-2.358a2.47 2.47 0 0 1 .807-.194 2.981 2.981 0 0 1 2.391 1.228c.775 1.163.711 3.037 1.292 3.651a1.044 1.044 0 0 0 .743.29c.614 0 1.389-.323 2.068-.355h.161a1.999 1.999 0 0 1 1.971 1.389 9.378 9.378 0 0 1 .162 3.489Z" fill="#6660FF"/><path d="M271.367 125.834h-.387l-.485.323c-.312.27-.594.573-.84.904a8.848 8.848 0 0 0-1.518 5.331 8.337 8.337 0 0 0 1.873 5.137 7.05 7.05 0 0 0 5.589 2.81c.323.033.647.033.969 0a5.262 5.262 0 0 0 2.779-1.195c.338-.323.641-.68.904-1.066l1.131-1.939c.01.119.01.238 0 .356 0 1.744 0 2.681.194 2.843.039.394.115.783.226 1.163a12.544 12.544 0 0 0 1.551 3.231c-.194-3.522 0-5.493.743-5.913a.654.654 0 0 1 .323 0c.276.09.538.22.775.388.226 0 1.228 1.034 3.004 2.649.308.281.644.53 1.002.743l.452.226c.17.042.347.042.517 0h.355c.235-.104.437-.272.582-.484a5.298 5.298 0 0 0 .775-2.197 4.902 4.902 0 0 1-1.357.194 5.078 5.078 0 0 1-2.39-.614 7.233 7.233 0 0 1-1.68-1.357 20.273 20.273 0 0 0-2.778-3.23 2.513 2.513 0 0 0-1.099-.517 2.294 2.294 0 0 0-1.098.387l-3.231 2.617a6 6 0 0 1-1.13.711 2.75 2.75 0 0 1-1.293.323 3.213 3.213 0 0 1-1.195-.259 8.843 8.843 0 0 1-4.232-6.299 11.278 11.278 0 0 1 .84-5.525l.129.259Z" fill="#000" fill-opacity=".106"/></g><defs><clipPath id="a"><path fill="#fff" d="M0 0h504v409H0z"/></clipPath></defs></svg>